<?xml version="1.0" encoding="UTF-8" standalone="no"?><!DOCTYPE svg PUBLIC "-//W3C//DTD SVG 1.1//EN" "http://www.w3.org/Graphics/SVG/1.1/DTD/svg11.dtd"><svg width="100%" height="100%" viewBox="0 0 16 16" version="1.1" xmlns="http://www.w3.org/2000/svg" xmlns:xlink="http://www.w3.org/1999/xlink" xml:space="preserve" xmlns:serif="http://www.serif.com/" style="fill-rule:evenodd;clip-rule:evenodd;stroke-linejoin:round;stroke-miterlimit:2;"><path d="M1.439,3.462c-0.269,0.134 -0.439,0.409 -0.439,0.709l-0,4.759c-0,0.3 0.17,0.576 0.439,0.71l4.759,2.379c0.223,0.112 0.486,0.112 0.709,0l4.759,-2.379c0.268,-0.134 0.438,-0.41 0.438,-0.71l0,-4.759c0,-0.3 -0.17,-0.575 -0.438,-0.709l-4.759,-2.38c-0.223,-0.111 -0.486,-0.111 -0.709,0l-4.759,2.38Zm5.113,-0.782l2.986,1.492l-1.096,0.549l-2.985,-1.493l1.095,-0.548Zm-3.966,2.777l3.173,1.586l0,2.985l-3.173,-1.586l0,-2.985Zm7.932,-0l0,2.985l-3.173,1.586l0,-2.985l3.173,-1.586Z" style="fill:#e0e0e0;fill-rule:nonzero;"/><path d="M5.706,8.013l0,6.898l4.141,0l-0,-1.38l-2.761,0l0,-4.139l2.761,0l-0,-1.379l-4.141,-0Zm6.211,0.69l0,2.069l-3.45,0l-0,1.38l3.45,-0l0,2.069l3.45,-2.759l-3.45,-2.759Z" style="fill:#ff5f5f;fill-rule:nonzero;"/></svg>