<?xml version="1.0" encoding="UTF-8" standalone="no"?><!DOCTYPE svg PUBLIC "-//W3C//DTD SVG 1.1//EN" "http://www.w3.org/Graphics/SVG/1.1/DTD/svg11.dtd"><svg width="100%" height="100%" viewBox="0 0 16 16" version="1.1" xmlns="http://www.w3.org/2000/svg" xmlns:xlink="http://www.w3.org/1999/xlink" xml:space="preserve" xmlns:serif="http://www.serif.com/" style="fill-rule:evenodd;clip-rule:evenodd;stroke-linejoin:round;stroke-miterlimit:2;"><path d="M1.439,3.462c-0.269,0.134 -0.439,0.409 -0.439,0.709l-0,4.759c-0,0.3 0.17,0.576 0.439,0.71l4.759,2.379c0.223,0.112 0.486,0.112 0.709,0l4.759,-2.379c0.268,-0.134 0.438,-0.41 0.438,-0.71l0,-4.759c0,-0.3 -0.17,-0.575 -0.438,-0.709l-4.759,-2.38c-0.223,-0.111 -0.486,-0.111 -0.709,0l-4.759,2.38Zm5.113,-0.782l2.986,1.492l-1.096,0.549l-2.985,-1.493l1.095,-0.548Zm-3.966,2.777l3.173,1.586l0,2.985l-3.173,-1.586l0,-2.985Zm7.932,-0l0,2.985l-3.173,1.586l0,-2.985l3.173,-1.586Z" style="fill:#e0e0e0;fill-rule:nonzero;"/><path d="M8.408,7.083c-0.36,-0 -0.656,0.296 -0.656,0.656c-0,0.359 0.296,0.655 0.656,0.655c2.877,0 5.245,2.368 5.245,5.246c-0,0.359 0.296,0.655 0.656,0.655c0.359,0 0.655,-0.296 0.655,-0.655c0,-3.597 -2.96,-6.557 -6.556,-6.557Zm-0,2.623c-0.36,-0 -0.656,0.296 -0.656,0.655c-0,0.36 0.296,0.656 0.656,0.656c1.438,-0 2.622,1.184 2.622,2.623c0,0.359 0.296,0.655 0.656,0.655c0.36,0 0.656,-0.296 0.656,-0.655c-0,-2.159 -1.776,-3.934 -3.934,-3.934Zm-0,2.622c-0.72,0 -1.312,0.592 -1.312,1.312c0,0.719 0.592,1.311 1.312,1.311c0.719,-0 1.311,-0.592 1.311,-1.311c-0,-0.72 -0.592,-1.312 -1.311,-1.312Z" style="fill:#ff5f5f;fill-rule:nonzero;"/></svg>